# Blender v2.80 (sub 44) OBJ File: 'boat.blend'
# www.blender.org
mtllib paddle.mtl
o paddle
v -0.016458 0.043753 1.709365
v -0.026886 0.022100 1.709353
v -0.016458 0.000449 1.709341
v 0.006970 -0.004898 1.709337
v 0.025758 0.010085 1.709346
v 0.025758 0.034118 1.709360
v 0.006970 0.049101 1.709369
v 0.025758 0.035609 -0.874916
v 0.025758 0.011576 -0.874930
v 0.081773 0.016064 -1.047605
v 0.081773 0.031319 -1.047597
v -0.026886 0.023591 -0.874923
v -0.016458 0.001940 -0.874936
v 0.006970 -0.003408 -0.874939
v 0.006970 0.050592 -0.874908
v -0.016458 0.045244 -0.874911
v -0.089059 0.023691 -1.047601
v -0.055224 0.037435 -1.047593
v -0.088130 0.026596 -1.780077
v -0.141837 0.024113 -1.780078
v 0.020805 0.040830 -1.047591
v -0.055224 0.009948 -1.047609
v 0.020805 0.006552 -1.047611
v 0.032547 0.027208 -1.780077
v 0.129322 0.026930 -1.780077
v 0.129322 0.021298 -1.780080
v 0.032547 0.021018 -1.780080
v -0.088130 0.021632 -1.780080
vt 0.931791 0.013942
vt 0.914945 0.007737
vt 0.931791 0.001532
vt 0.969644 0.000000
vt 1.000000 0.004294
vt 1.000000 0.011181
vt 0.969644 0.015475
vt 0.914945 0.261066
vt 0.876118 0.261066
vt 0.883208 0.209957
vt 0.907855 0.209957
vt 0.235396 0.000012
vt 0.253167 0.000064
vt 0.252605 0.740619
vt 0.234834 0.740568
vt 0.167625 0.000036
vt 0.197327 0.000000
vt 0.196765 0.740556
vt 0.167063 0.740592
vt 0.678789 0.000000
vt 0.708491 0.000036
vt 0.709054 0.740592
vt 0.679353 0.740556
vt 0.622949 0.000064
vt 0.640720 0.000012
vt 0.641283 0.740568
vt 0.623513 0.740619
vt 0.914944 0.995784
vt 0.876118 0.995784
vt 0.523138 0.790101
vt 0.578374 0.790069
vt 0.524905 0.999995
vt 0.438059 1.000000
vt 0.701308 0.790063
vt 0.352980 0.790101
vt 0.297743 0.790069
vt 0.174809 0.790063
vt 0.076749 0.790087
vt 0.799369 0.790087
vt 0.923955 0.030865
vt 0.924944 0.065448
vt 0.924494 0.093181
vt 0.915393 0.093181
vt 0.914945 0.065448
vt 0.915936 0.030865
vt 0.919946 0.015475
vt 0.351213 0.999995
vt 0.156286 0.999997
vt 0.890981 0.000000
vt 0.900082 0.000000
vt 0.719832 0.999997
vt 0.000000 1.000000
vt 0.876118 1.000000
vn 0.0000 -0.0006 1.0000
vn 0.9512 -0.0002 0.3086
vn -0.9009 -0.4339 -0.0003
vn 0.6235 -0.7818 -0.0005
vn 0.6235 0.7818 0.0005
vn -0.9010 0.4339 0.0003
vn -0.2225 -0.9749 -0.0006
vn 1.0000 -0.0000 0.0000
vn -0.2225 0.9749 0.0006
vn -0.1823 0.9832 0.0037
vn -0.0875 0.9952 -0.0443
vn -0.6162 -0.7707 0.1620
vn 0.2935 -0.9558 0.0194
vn 0.2935 0.9557 0.0205
vn -0.6163 0.7705 0.1629
vn -0.0875 -0.9951 -0.0455
vn -0.0000 0.0006 -1.0000
vn -0.0204 -0.9996 -0.0176
vn 0.9979 -0.0000 0.0648
vn -0.0204 0.9997 -0.0164
vn -0.1822 -0.9833 0.0025
vn 0.0620 -0.9980 -0.0109
vn 0.0619 0.9980 -0.0098
usemtl None
s 1
f 1/1/1 2/2/1 3/3/1 4/4/1 5/5/1 6/6/1 7/7/1
f 8/8/2 9/9/2 10/10/2 11/11/2
f 3/12/3 2/13/3 12/14/3 13/15/3
f 5/16/4 4/17/4 14/18/4 9/19/4
f 7/20/5 6/21/5 8/22/5 15/23/5
f 2/24/6 1/25/6 16/26/6 12/27/6
f 4/17/7 3/12/7 13/15/7 14/18/7
f 6/28/8 5/29/8 9/9/8 8/8/8
f 1/25/9 7/20/9 15/23/9 16/26/9
f 17/30/10 18/31/10 19/32/10 20/33/10
f 16/26/11 15/23/11 21/34/11 18/31/11
f 13/15/12 12/14/12 17/35/12 22/36/12
f 9/19/13 14/18/13 23/37/13 10/38/13
f 15/23/14 8/22/14 11/39/14 21/34/14
f 12/27/15 16/26/15 18/31/15 17/30/15
f 14/18/16 13/15/16 22/36/16 23/37/16
f 19/40/17 24/41/17 25/42/17 26/43/17 27/44/17 28/45/17 20/46/17
f 23/37/18 22/36/18 28/47/18 27/48/18
f 11/11/19 10/10/19 26/49/19 25/50/19
f 18/31/20 21/34/20 24/51/20 19/32/20
f 22/36/21 17/35/21 20/33/21 28/47/21
f 10/38/22 23/37/22 27/48/22 26/52/22
f 21/34/23 11/39/23 25/53/23 24/51/23
